{
  "accessors": [
    {
      "bufferView": 2,
      "componentType": 5126,
      "count": 101,
      "max": [
        0.8096610903739929,
        6.629870891571045,
        0.354368656873703
      ],
      "min": [
        0.6533206105232239,
        6.474239826202393,
        0.3397752046585083
      ],
      "type": "VEC3"
    },
    {
      "bufferView": 2,
      "byteOffset": 1212,
      "componentType": 5126,
      "count": 101,
      "max": [
        0.7639213800430298,
        0.763931930065155,
        1.0
      ],
      "min": [
        -0.7639279961585999,
        -0.7639586925506592,
        0.6452649235725403
      ],
      "type": "VEC3"
    },
    {
      "bufferView": 1,
      "componentType": 5126,
      "count": 101,
      "max": [
        0.9776365756988525,
        0.47912633419036865
      ],
      "min": [
        0.5220208168029785,
        0.023510456085205078
      ],
      "type": "VEC2"
    },
    {
      "bufferView": 0,
      "componentType": 5125,
      "count": 540,
      "type": "SCALAR"
    },
    {
      "bufferView": 2,
      "byteOffset": 2424,
      "componentType": 5126,
      "count": 57,
      "max": [
        0.9000141024589539,
        6.719812870025635,
        0.3900575339794159
      ],
      "min": [
        0.5629673004150391,
        6.3842949867248535,
        0.3900574743747711
      ],
      "type": "VEC3"
    },
    {
      "bufferView": 2,
      "byteOffset": 3108,
      "componentType": 5126,
      "count": 57,
      "max": [
        2.244768893433502e-06,
        7.948405595925578e-07,
        1.0
      ],
      "min": [
        -1.130178361563594e-06,
        -4.4091081008446054e-07,
        1.0
      ],
      "type": "VEC3"
    },
    {
      "bufferView": 1,
      "byteOffset": 808,
      "componentType": 5126,
      "count": 57,
      "max": [
        1.748157262802124,
        0.6680465340614319
      ],
      "min": [
        1.4120652675628662,
        0.33195430040359497
      ],
      "type": "VEC2"
    },
    {
      "bufferView": 0,
      "byteOffset": 2160,
      "componentType": 5125,
      "count": 168,
      "type": "SCALAR"
    },
    {
      "bufferView": 2,
      "byteOffset": 3792,
      "componentType": 5126,
      "count": 60,
      "max": [
        0.15299971401691437,
        6.733616828918457,
        0.39005789160728455
      ],
      "min": [
        -0.9207209944725037,
        6.370491027832031,
        0.39005720615386963
      ],
      "type": "VEC3"
    },
    {
      "bufferView": 2,
      "byteOffset": 4512,
      "componentType": 5126,
      "count": 60,
      "max": [
        1.2208274711156264e-05,
        5.547137334360741e-06,
        1.0
      ],
      "min": [
        -1.2817995411751326e-05,
        -6.263259820116218e-06,
        1.0
      ],
      "type": "VEC3"
    },
    {
      "bufferView": 1,
      "byteOffset": 1264,
      "componentType": 5126,
      "count": 60,
      "max": [
        1.908449411392212,
        -3.5629425048828125
      ],
      "min": [
        1.8276209831237793,
        -3.6002769470214844
      ],
      "type": "VEC2"
    },
    {
      "bufferView": 0,
      "byteOffset": 2832,
      "componentType": 5125,
      "count": 180,
      "type": "SCALAR"
    },
    {
      "bufferView": 2,
      "byteOffset": 5232,
      "componentType": 5126,
      "count": 161,
      "max": [
        3.2632734775543213,
        7.042495250701904,
        0.3900579810142517
      ],
      "min": [
        -3.263280153274536,
        -7.042456150054932,
        0.3900570273399353
      ],
      "type": "VEC3"
    },
    {
      "bufferView": 2,
      "byteOffset": 7164,
      "componentType": 5126,
      "count": 161,
      "max": [
        2.4497210233676014e-06,
        1.2368344869173598e-05,
        1.0
      ],
      "min": [
        -4.995331437385175e-06,
        -3.4035995213343995e-06,
        1.0
      ],
      "type": "VEC3"
    },
    {
      "bufferView": 1,
      "byteOffset": 1744,
      "componentType": 5126,
      "count": 161,
      "max": [
        0.47987741231918335,
        1.0
      ],
      "min": [
        0.018149958923459053,
        0.0
      ],
      "type": "VEC2"
    },
    {
      "bufferView": 0,
      "byteOffset": 3552,
      "componentType": 5125,
      "count": 501,
      "type": "SCALAR"
    },
    {
      "bufferView": 2,
      "byteOffset": 9096,
      "componentType": 5126,
      "count": 1931,
      "max": [
        3.4913108348846436,
        7.269496917724609,
        0.3900579810142517
      ],
      "min": [
        -3.4913172721862793,
        -7.26951265335083,
        0.35013243556022644
      ],
      "type": "VEC3"
    },
    {
      "bufferView": 2,
      "byteOffset": 32268,
      "componentType": 5126,
      "count": 1931,
      "max": [
        1.0,
        1.0,
        1.0
      ],
      "min": [
        -1.0,
        -1.0,
        0.0
      ],
      "type": "VEC3"
    },
    {
      "bufferView": 1,
      "byteOffset": 3032,
      "componentType": 5126,
      "count": 1931,
      "max": [
        1.9610321521759033,
        1.0
      ],
      "min": [
        -0.7564157843589783,
        0.0
      ],
      "type": "VEC2"
    },
    {
      "bufferView": 1,
      "byteOffset": 18480,
      "componentType": 5126,
      "count": 1931,
      "max": [
        1.2502409219741821,
        1.0
      ],
      "min": [
        0.0,
        0.0
      ],
      "type": "VEC2"
    },
    {
      "bufferView": 0,
      "byteOffset": 5556,
      "componentType": 5125,
      "count": 7041,
      "type": "SCALAR"
    },
    {
      "bufferView": 2,
      "byteOffset": 55440,
      "componentType": 5126,
      "count": 984,
      "max": [
        2.7542176246643066,
        6.535747528076172,
        -0.4926171600818634
      ],
      "min": [
        1.6972322463989258,
        3.8549740314483643,
        -0.6398804187774658
      ],
      "type": "VEC3"
    },
    {
      "bufferView": 2,
      "byteOffset": 67248,
      "componentType": 5126,
      "count": 984,
      "max": [
        0.722856879234314,
        0.7228561043739319,
        -0.6909846663475037
      ],
      "min": [
        -0.7228631973266602,
        -0.722861111164093,
        -1.0
      ],
      "type": "VEC3"
    },
    {
      "bufferView": 1,
      "byteOffset": 33928,
      "componentType": 5126,
      "count": 984,
      "max": [
        0.9972563982009888,
        0.9960663914680481
      ],
      "min": [
        0.004129528999328613,
        0.0030454397201538086
      ],
      "type": "VEC2"
    },
    {
      "bufferView": 0,
      "byteOffset": 33720,
      "componentType": 5125,
      "count": 3192,
      "type": "SCALAR"
    },
    {
      "bufferView": 2,
      "byteOffset": 79056,
      "componentType": 5126,
      "count": 194,
      "max": [
        2.8800764083862305,
        6.661036014556885,
        -0.7371339201927185
      ],
      "min": [
        1.5713735818862915,
        3.5890755653381348,
        -0.7371339201927185
      ],
      "type": "VEC3"
    },
    {
      "bufferView": 2,
      "byteOffset": 81384,
      "componentType": 5126,
      "count": 194,
      "max": [
        1.4714623830514029e-06,
        7.307935447897762e-07,
        -1.0
      ],
      "min": [
        -1.271203927899478e-06,
        -7.307975238290965e-07,
        -1.0
      ],
      "type": "VEC3"
    },
    {
      "bufferView": 1,
      "byteOffset": 41800,
      "componentType": 5126,
      "count": 194,
      "max": [
        1.1524792909622192,
        1.1525171995162964
      ],
      "min": [
        -0.15249529480934143,
        -0.15245771408081055
      ],
      "type": "VEC2"
    },
    {
      "bufferView": 0,
      "byteOffset": 46488,
      "componentType": 5125,
      "count": 576,
      "type": "SCALAR"
    },
    {
      "bufferView": 2,
      "byteOffset": 83712,
      "componentType": 5126,
      "count": 182,
      "max": [
        2.39518141746521,
        6.076356410980225,
        -0.4263090193271637
      ],
      "min": [
        2.0562632083892822,
        4.071804523468018,
        -0.49888306856155396
      ],
      "type": "VEC3"
    },
    {
      "bufferView": 2,
      "byteOffset": 85896,
      "componentType": 5126,
      "count": 182,
      "max": [
        0.6002590656280518,
        0.6002845764160156,
        -0.7997815012931824
      ],
      "min": [
        -0.6002659201622009,
        -0.60029137134552,
        -1.0
      ],
      "type": "VEC3"
    },
    {
      "bufferView": 1,
      "byteOffset": 43352,
      "componentType": 5126,
      "count": 182,
      "max": [
        0.9527988433837891,
        0.9527987241744995
      ],
      "min": [
        0.04720127582550049,
        0.04720127582550049
      ],
      "type": "VEC2"
    },
    {
      "bufferView": 0,
      "byteOffset": 48792,
      "componentType": 5125,
      "count": 960,
      "type": "SCALAR"
    },
    {
      "bufferView": 2,
      "byteOffset": 88080,
      "componentType": 5126,
      "count": 3480,
      "max": [
        3.0280404090881348,
        6.808411121368408,
        -0.573621928691864
      ],
      "min": [
        1.4231417179107666,
        3.4415955543518066,
        -0.7186618447303772
      ],
      "type": "VEC3"
    },
    {
      "bufferView": 2,
      "byteOffset": 129840,
      "componentType": 5126,
      "count": 3480,
      "max": [
        1.0,
        1.0,
        0.45513951778411865
      ],
      "min": [
        -1.0,
        -1.0,
        -0.9999987483024597
      ],
      "type": "VEC3"
    },
    {
      "bufferView": 1,
      "byteOffset": 44808,
      "componentType": 5126,
      "count": 3480,
      "max": [
        2.841794490814209,
        0.70789635181427
      ],
      "min": [
        -1.836221694946289,
        0.3251630663871765
      ],
      "type": "VEC2"
    },
    {
      "bufferView": 1,
      "byteOffset": 72648,
      "componentType": 5126,
      "count": 3480,
      "max": [
        1.0,
        1.0
      ],
      "min": [
        -5.960464477539063e-08,
        0.0
      ],
      "type": "VEC2"
    },
    {
      "bufferView": 1,
      "byteOffset": 100488,
      "componentType": 5126,
      "count": 3480,
      "max": [
        1.0,
        1.0
      ],
      "min": [
        0.0,
        0.0
      ],
      "type": "VEC2"
    },
    {
      "bufferView": 0,
      "byteOffset": 52632,
      "componentType": 5125,
      "count": 12672,
      "type": "SCALAR"
    },
    {
      "bufferView": 2,
      "byteOffset": 171600,
      "componentType": 5126,
      "count": 4234,
      "max": [
        2.9201929569244385,
        6.700917720794678,
        -0.4308941960334778
      ],
      "min": [
        1.5312572717666626,
        3.549103021621704,
        -0.7371339201927185
      ],
      "type": "VEC3"
    },
    {
      "bufferView": 2,
      "byteOffset": 222408,
      "componentType": 5126,
      "count": 4234,
      "max": [
        1.0,
        1.0,
        1.0
      ],
      "min": [
        -1.0,
        -1.0,
        -0.9999997615814209
      ],
      "type": "VEC3"
    },
    {
      "bufferView": 1,
      "byteOffset": 128328,
      "componentType": 5126,
      "count": 4234,
      "max": [
        2.5977396965026855,
        0.817290186882019
      ],
      "min": [
        -1.5921216011047363,
        0.2988182306289673
      ],
      "type": "VEC2"
    },
    {
      "bufferView": 0,
      "byteOffset": 103320,
      "componentType": 5125,
      "count": 16128,
      "type": "SCALAR"
    },
    {
      "bufferView": 2,
      "byteOffset": 273216,
      "componentType": 5126,
      "count": 1264,
      "max": [
        3.0280404090881348,
        6.808411121368408,
        -0.4308941960334778
      ],
      "min": [
        1.4231417179107666,
        3.4415955543518066,
        -0.5747780203819275
      ],
      "type": "VEC3"
    },
    {
      "bufferView": 2,
      "byteOffset": 288384,
      "componentType": 5126,
      "count": 1264,
      "max": [
        1.0,
        1.0,
        1.0
      ],
      "min": [
        -1.0,
        -1.0,
        -0.4543721675872803
      ],
      "type": "VEC3"
    },
    {
      "bufferView": 1,
      "byteOffset": 162200,
      "componentType": 5126,
      "count": 1264,
      "max": [
        2.83670973777771,
        1.0
      ],
      "min": [
        -1.8311517238616943,
        0.0
      ],
      "type": "VEC2"
    },
    {
      "bufferView": 1,
      "byteOffset": 172312,
      "componentType": 5126,
      "count": 1264,
      "max": [
        1.0,
        1.0
      ],
      "min": [
        -5.960464477539063e-08,
        0.0
      ],
      "type": "VEC2"
    },
    {
      "bufferView": 1,
      "byteOffset": 182424,
      "componentType": 5126,
      "count": 1264,
      "max": [
        1.0,
        1.0
      ],
      "min": [
        0.0,
        0.0
      ],
      "type": "VEC2"
    },
    {
      "bufferView": 0,
      "byteOffset": 167832,
      "componentType": 5125,
      "count": 4320,
      "type": "SCALAR"
    },
    {
      "bufferView": 2,
      "byteOffset": 303552,
      "componentType": 5126,
      "count": 1280,
      "max": [
        0.8871241807937622,
        5.428626537322998,
        -0.34593266248703003
      ],
      "min": [
        0.27716225385665894,
        4.821433067321777,
        -0.3685894310474396
      ],
      "type": "VEC3"
    },
    {
      "bufferView": 2,
      "byteOffset": 318912,
      "componentType": 5126,
      "count": 1280,
      "max": [
        0.9999995827674866,
        1.0,
        0.0
      ],
      "min": [
        -1.0,
        -1.0,
        -0.9999999403953552
      ],
      "type": "VEC3"
    },
    {
      "bufferView": 1,
      "byteOffset": 192536,
      "componentType": 5126,
      "count": 1280,
      "max": [
        0.9672694206237793,
        0.9676482677459717
      ],
      "min": [
        0.029897212982177734,
        0.030344843864440918
      ],
      "type": "VEC2"
    },
    {
      "bufferView": 1,
      "byteOffset": 202776,
      "componentType": 5126,
      "count": 1280,
      "max": [
        1.0,
        1.0
      ],
      "min": [
        0.0,
        0.0
      ],
      "type": "VEC2"
    },
    {
      "bufferView": 1,
      "byteOffset": 213016,
      "componentType": 5126,
      "count": 1280,
      "max": [
        1.0,
        1.0
      ],
      "min": [
        0.0,
        0.0
      ],
      "type": "VEC2"
    },
    {
      "bufferView": 0,
      "byteOffset": 185112,
      "componentType": 5125,
      "count": 1920,
      "type": "SCALAR"
    },
    {
      "bufferView": 2,
      "byteOffset": 334272,
      "componentType": 5126,
      "count": 481,
      "max": [
        0.8348807692527771,
        5.388179302215576,
        -0.31193095445632935
      ],
      "min": [
        0.3262035846710205,
        4.879425525665283,
        -0.3468315303325653
      ],
      "type": "VEC3"
    },
    {
      "bufferView": 2,
      "byteOffset": 340044,
      "componentType": 5126,
      "count": 481,
      "max": [
        0.36075544357299805,
        0.3607030510902405,
        -0.9326507449150085
      ],
      "min": [
        -0.3607468903064728,
        -0.3607115149497986,
        -1.0
      ],
      "type": "VEC3"
    },
    {
      "bufferView": 1,
      "byteOffset": 223256,
      "componentType": 5126,
      "count": 481,
      "max": [
        0.9017064571380615,
        0.8985421657562256
      ],
      "min": [
        0.1018722653388977,
        0.0985879898071289
      ],
      "type": "VEC2"
    },
    {
      "bufferView": 0,
      "byteOffset": 192792,
      "componentType": 5125,
      "count": 2520,
      "type": "SCALAR"
    },
    {
      "bufferView": 2,
      "byteOffset": 345816,
      "componentType": 5126,
      "count": 2401,
      "max": [
        0.8877089023590088,
        5.429200172424316,
        -0.3697163164615631
      ],
      "min": [
        0.2765999138355255,
        4.820863723754883,
        -0.3763943910598755
      ],
      "type": "VEC3"
    },
    {
      "bufferView": 2,
      "byteOffset": 374628,
      "componentType": 5126,
      "count": 2401,
      "max": [
        0.3996979296207428,
        0.3997810482978821,
        -0.9165740609169006
      ],
      "min": [
        -0.39976459741592407,
        -0.39976903796195984,
        -1.0
      ],
      "type": "VEC3"
    },
    {
      "bufferView": 1,
      "byteOffset": 227104,
      "componentType": 5126,
      "count": 2401,
      "max": [
        0.9862321615219116,
        0.9862321615219116
      ],
      "min": [
        0.013767808675765991,
        0.013767838478088379
      ],
      "type": "VEC2"
    },
    {
      "bufferView": 0,
      "byteOffset": 202872,
      "componentType": 5125,
      "count": 14040,
      "type": "SCALAR"
    },
    {
      "bufferView": 2,
      "byteOffset": 403440,
      "componentType": 5126,
      "count": 84,
      "max": [
        1.6023513078689575,
        5.195798873901367,
        -0.30997440218925476
      ],
      "min": [
        1.4601633548736572,
        5.054255962371826,
        -0.5747783780097961
      ],
      "type": "VEC3"
    },
    {
      "bufferView": 2,
      "byteOffset": 404448,
      "componentType": 5126,
      "count": 84,
      "max": [
        1.0,
        1.0,
        0.0
      ],
      "min": [
        -1.0,
        -1.0,
        -0.7113104462623596
      ],
      "type": "VEC3"
    },
    {
      "bufferView": 1,
      "byteOffset": 246312,
      "componentType": 5126,
      "count": 84,
      "max": [
        0.3479442298412323,
        0.2847551107406616
      ],
      "min": [
        0.021783679723739624,
        0.009894490242004395
      ],
      "type": "VEC2"
    },
    {
      "bufferView": 1,
      "byteOffset": 246984,
      "componentType": 5126,
      "count": 84,
      "max": [
        3.738358974456787,
        1.0
      ],
      "min": [
        2.6894190311431885,
        0.0
      ],
      "type": "VEC2"
    },
    {
      "bufferView": 0,
      "byteOffset": 259032,
      "componentType": 5125,
      "count": 240,
      "type": "SCALAR"
    },
    {
      "bufferView": 2,
      "byteOffset": 405456,
      "componentType": 5126,
      "count": 61,
      "max": [
        0.8887929916381836,
        5.430288791656494,
        -0.3800773322582245
      ],
      "min": [
        0.27558425068855286,
        4.819770812988281,
        -0.38042548298835754
      ],
      "type": "VEC3"
    },
    {
      "bufferView": 2,
      "byteOffset": 406188,
      "componentType": 5126,
      "count": 61,
      "max": [
        9.118447633227333e-05,
        0.0029523372650146484,
        -0.9999950528144836
      ],
      "min": [
        -0.0011236886493861675,
        -0.0029525435529649258,
        -1.0
      ],
      "type": "VEC3"
    },
    {
      "bufferView": 1,
      "byteOffset": 247656,
      "componentType": 5126,
      "count": 61,
      "max": [
        0.8056179285049438,
        0.8057812452316284
      ],
      "min": [
        0.19414770603179932,
        0.19421952962875366
      ],
      "type": "VEC2"
    },
    {
      "bufferView": 1,
      "byteOffset": 248144,
      "componentType": 5126,
      "count": 61,
      "max": [
        1.0,
        1.0
      ],
      "min": [
        0.0,
        0.3333333134651184
      ],
      "type": "VEC2"
    },
    {
      "bufferView": 0,
      "byteOffset": 259992,
      "componentType": 5125,
      "count": 120,
      "type": "SCALAR"
    },
    {
      "bufferView": 2,
      "byteOffset": 406920,
      "componentType": 5126,
      "count": 75,
      "max": [
        3.4763317108154297,
        7.238536357879639,
        -0.3848852217197418
      ],
      "min": [
        0.9749258160591125,
        3.011356830596924,
        -0.3900652825832367
      ],
      "type": "VEC3"
    },
    {
      "bufferView": 2,
      "byteOffset": 407820,
      "componentType": 5126,
      "count": 75,
      "max": [
        0.008376842364668846,
        0.010774639435112476,
        -0.9999290108680725
      ],
      "min": [
        -0.005418496206402779,
        -0.006870095152407885,
        -0.9999998211860657
      ],
      "type": "VEC3"
    },
    {
      "bufferView": 1,
      "byteOffset": 248632,
      "componentType": 5126,
      "count": 75,
      "max": [
        -0.7486617565155029,
        -3.1983981132507324
      ],
      "min": [
        -3.2065412998199463,
        -7.394353866577148
      ],
      "type": "VEC2"
    },
    {
      "bufferView": 1,
      "byteOffset": 249232,
      "componentType": 5126,
      "count": 75,
      "max": [
        0.7633844614028931,
        0.9496352672576904
      ],
      "min": [
        0.23661553859710693,
        0.05036461353302002
      ],
      "type": "VEC2"
    },
    {
      "bufferView": 0,
      "byteOffset": 260472,
      "componentType": 5125,
      "count": 228,
      "type": "SCALAR"
    },
    {
      "bufferView": 2,
      "byteOffset": 408720,
      "componentType": 5126,
      "count": 205,
      "max": [
        3.2110745906829834,
        6.974055290222168,
        -0.5747320055961609
      ],
      "min": [
        1.2403745651245117,
        3.2760207653045654,
        -0.5747813582420349
      ],
      "type": "VEC3"
    },
    {
      "bufferView": 2,
      "byteOffset": 411180,
      "componentType": 5126,
      "count": 205,
      "max": [
        0.00012497379793785512,
        8.787170372670516e-05,
        -1.0
      ],
      "min": [
        -8.728011744096875e-05,
        -8.571301441406831e-05,
        -1.0
      ],
      "type": "VEC3"
    },
    {
      "bufferView": 1,
      "byteOffset": 249832,
      "componentType": 5126,
      "count": 205,
      "max": [
        0.5294299721717834,
        0.9980079531669617
      ],
      "min": [
        0.0010567465797066689,
        0.00199204683303833
      ],
      "type": "VEC2"
    },
    {
      "bufferView": 1,
      "byteOffset": 251472,
      "componentType": 5126,
      "count": 205,
      "max": [
        0.2365468591451645,
        0.7843766212463379
      ],
      "min": [
        0.11564765870571136,
        0.5564749240875244
      ],
      "type": "VEC2"
    },
    {
      "bufferView": 0,
      "byteOffset": 261384,
      "componentType": 5125,
      "count": 630,
      "type": "SCALAR"
    },
    {
      "bufferView": 2,
      "byteOffset": 413640,
      "componentType": 5126,
      "count": 41,
      "max": [
        1.5819644927978516,
        5.175504684448242,
        -0.3913538157939911
      ],
      "min": [
        1.4805501699447632,
        5.074550151824951,
        -0.39135387539863586
      ],
      "type": "VEC3"
    },
    {
      "bufferView": 2,
      "byteOffset": 414132,
      "componentType": 5126,
      "count": 41,
      "max": [
        2.7996511562378146e-06,
        1.1788227993747569e-06,
        -1.0
      ],
      "min": [
        -2.7998626137559768e-06,
        -1.1788006304414012e-06,
        -1.0
      ],
      "type": "VEC3"
    },
    {
      "bufferView": 1,
      "byteOffset": 253112,
      "componentType": 5126,
      "count": 41,
      "max": [
        0.603298544883728,
        0.6486576199531555
      ],
      "min": [
        0.30404824018478394,
        0.3494069576263428
      ],
      "type": "VEC2"
    },
    {
      "bufferView": 1,
      "byteOffset": 253440,
      "componentType": 5126,
      "count": 41,
      "max": [
        1.0,
        1.0
      ],
      "min": [
        0.0,
        0.0
      ],
      "type": "VEC2"
    },
    {
      "bufferView": 0,
      "byteOffset": 263904,
      "componentType": 5125,
      "count": 60,
      "type": "SCALAR"
    },
    {
      "bufferView": 2,
      "byteOffset": 414624,
      "componentType": 5126,
      "count": 232,
      "max": [
        0.7791863679885864,
        1.1281059980392456,
        -0.3900456130504608
      ],
      "min": [
        -0.8002892732620239,
        -0.8029290437698364,
        -0.390046089887619
      ],
      "type": "VEC3"
    },
    {
      "bufferView": 2,
      "byteOffset": 417408,
      "componentType": 5126,
      "count": 232,
      "max": [
        1.543052349006757e-05,
        7.68800327932695e-06,
        -1.0
      ],
      "min": [
        -2.4815428787405835e-06,
        -1.294836920351372e-06,
        -1.0
      ],
      "type": "VEC3"
    },
    {
      "bufferView": 1,
      "byteOffset": 253768,
      "componentType": 5126,
      "count": 232,
      "max": [
        1.440765619277954,
        1.3260449171066284
      ],
      "min": [
        -0.130573570728302,
        -0.6046826839447021
      ],
      "type": "VEC2"
    },
    {
      "bufferView": 1,
      "byteOffset": 255624,
      "componentType": 5126,
      "count": 232,
      "max": [
        0.5482842326164246,
        0.2240900993347168
      ],
      "min": [
        0.4655892848968506,
        0.15675723552703857
      ],
      "type": "VEC2"
    },
    {
      "bufferView": 0,
      "byteOffset": 264144,
      "componentType": 5125,
      "count": 687,
      "type": "SCALAR"
    },
    {
      "bufferView": 2,
      "byteOffset": 420192,
      "componentType": 5126,
      "count": 2795,
      "max": [
        3.4913322925567627,
        7.269608497619629,
        -0.34962964057922363
      ],
      "min": [
        -3.488910675048828,
        -7.268398761749268,
        -0.5747818350791931
      ],
      "type": "VEC3"
    },
    {
      "bufferView": 2,
      "byteOffset": 453732,
      "componentType": 5126,
      "count": 2795,
      "max": [
        1.0,
        1.0,
        0.0027117538265883923
      ],
      "min": [
        -1.0,
        -1.0,
        -1.0
      ],
      "type": "VEC3"
    },
    {
      "bufferView": 1,
      "byteOffset": 257480,
      "componentType": 5126,
      "count": 2795,
      "max": [
        1.0,
        0.9809902310371399
      ],
      "min": [
        -6.48997967675225e-17,
        0.021946191787719727
      ],
      "type": "VEC2"
    },
    {
      "bufferView": 1,
      "byteOffset": 279840,
      "componentType": 5126,
      "count": 2795,
      "max": [
        4.210151195526123,
        7.867733478546143
      ],
      "min": [
        -2.961151123046875,
        -6.882774353027344
      ],
      "type": "VEC2"
    },
    {
      "bufferView": 0,
      "byteOffset": 266892,
      "componentType": 5125,
      "count": 11421,
      "type": "SCALAR"
    },
    {
      "bufferView": 2,
      "byteOffset": 487272,
      "componentType": 5126,
      "count": 258,
      "max": [
        2.2852444648742676,
        1.912251353263855,
        -0.3900423049926758
      ],
      "min": [
        -2.0996475219726563,
        -2.0647666454315186,
        -0.39004698395729065
      ],
      "type": "VEC3"
    },
    {
      "bufferView": 2,
      "byteOffset": 490368,
      "componentType": 5126,
      "count": 258,
      "max": [
        2.871725428121863e-06,
        5.11911821376998e-07,
        -1.0
      ],
      "min": [
        -2.8181643756397534e-06,
        -1.810289404602372e-06,
        -1.0
      ],
      "type": "VEC3"
    },
    {
      "bufferView": 1,
      "byteOffset": 302200,
      "componentType": 5126,
      "count": 258,
      "max": [
        0.5848783850669861,
        0.2625477910041809
      ],
      "min": [
        0.41068780422210693,
        0.06868958473205566
      ],
      "type": "VEC2"
    },
    {
      "bufferView": 1,
      "byteOffset": 304264,
      "componentType": 5126,
      "count": 258,
      "max": [
        2.721560001373291,
        2.5910933017730713
      ],
      "min": [
        -1.6693334579467773,
        -1.3873043060302734
      ],
      "type": "VEC2"
    },
    {
      "bufferView": 0,
      "byteOffset": 312576,
      "componentType": 5125,
      "count": 822,
      "type": "SCALAR"
    },
    {
      "bufferView": 2,
      "byteOffset": 493464,
      "componentType": 5126,
      "count": 232,
      "max": [
        0.7791863679885864,
        1.1281059980392456,
        -0.3530241847038269
      ],
      "min": [
        -0.8002892732620239,
        -0.8029290437698364,
        -0.3530246615409851
      ],
      "type": "VEC3"
    },
    {
      "bufferView": 2,
      "byteOffset": 496248,
      "componentType": 5126,
      "count": 232,
      "max": [
        1.7145026504294947e-05,
        7.68800327932695e-06,
        -1.0
      ],
      "min": [
        -3.723139798239572e-06,
        -1.294836920351372e-06,
        -1.0
      ],
      "type": "VEC3"
    },
    {
      "bufferView": 1,
      "byteOffset": 306328,
      "componentType": 5126,
      "count": 232,
      "max": [
        1.440765619277954,
        1.3260449171066284
      ],
      "min": [
        -0.130573570728302,
        -0.6046826839447021
      ],
      "type": "VEC2"
    },
    {
      "bufferView": 1,
      "byteOffset": 308184,
      "componentType": 5126,
      "count": 232,
      "max": [
        0.5482842326164246,
        0.2240900993347168
      ],
      "min": [
        0.4655892848968506,
        0.15675723552703857
      ],
      "type": "VEC2"
    },
    {
      "bufferView": 0,
      "byteOffset": 315864,
      "componentType": 5125,
      "count": 687,
      "type": "SCALAR"
    },
    {
      "bufferView": 2,
      "byteOffset": 499032,
      "componentType": 5126,
      "count": 4698,
      "max": [
        3.6367504596710205,
        4.343911647796631,
        0.21911431849002838
      ],
      "min": [
        -3.6368002891540527,
        -7.3693437576293945,
        -0.2191261202096939
      ],
      "type": "VEC3"
    },
    {
      "bufferView": 2,
      "byteOffset": 555408,
      "componentType": 5126,
      "count": 4698,
      "max": [
        1.0,
        1.0,
        1.0
      ],
      "min": [
        -1.0,
        -1.0,
        -1.0
      ],
      "type": "VEC3"
    },
    {
      "bufferView": 1,
      "byteOffset": 310040,
      "componentType": 5126,
      "count": 4698,
      "max": [
        3.2673332691192627,
        1.4851738214492798
      ],
      "min": [
        -2.2642767429351807,
        -0.48497939109802246
      ],
      "type": "VEC2"
    },
    {
      "bufferView": 1,
      "byteOffset": 347624,
      "componentType": 5126,
      "count": 4698,
      "max": [
        0.9719771146774292,
        0.9926108121871948
      ],
      "min": [
        0.007235527038574219,
        0.0073891282081604
      ],
      "type": "VEC2"
    },
    {
      "bufferView": 0,
      "byteOffset": 318612,
      "componentType": 5125,
      "count": 17868,
      "type": "SCALAR"
    },
    {
      "bufferView": 2,
      "byteOffset": 611784,
      "componentType": 5126,
      "count": 4,
      "max": [
        -3.53114652633667,
        -3.80216121673584,
        0.06953167915344238
      ],
      "min": [
        -3.531146764755249,
        -3.941223621368408,
        -0.06953087449073792
      ],
      "type": "VEC3"
    },
    {
      "bufferView": 2,
      "byteOffset": 611832,
      "componentType": 5126,
      "count": 4,
      "max": [
        -1.0,
        1.5410978448926471e-06,
        0.0
      ],
      "min": [
        -1.0,
        1.5410978448926471e-06,
        0.0
      ],
      "type": "VEC3"
    },
    {
      "bufferView": 1,
      "byteOffset": 385208,
      "componentType": 5126,
      "count": 4,
      "max": [
        1.0,
        1.0
      ],
      "min": [
        0.0,
        0.0
      ],
      "type": "VEC2"
    },
    {
      "bufferView": 0,
      "byteOffset": 390084,
      "componentType": 5125,
      "count": 6,
      "type": "SCALAR"
    },
    {
      "bufferView": 2,
      "byteOffset": 611880,
      "componentType": 5126,
      "count": 8011,
      "max": [
        3.5915956497192383,
        7.369325637817383,
        0.3766232132911682
      ],
      "min": [
        -3.591602087020874,
        -7.3693528175354,
        -0.3766358196735382
      ],
      "type": "VEC3"
    },
    {
      "bufferView": 2,
      "byteOffset": 708012,
      "componentType": 5126,
      "count": 8011,
      "max": [
        1.0,
        1.0,
        1.0
      ],
      "min": [
        -1.0,
        -1.0,
        -1.0
      ],
      "type": "VEC3"
    },
    {
      "bufferView": 1,
      "byteOffset": 385240,
      "componentType": 5126,
      "count": 8011,
      "max": [
        6.931970596313477,
        5.519153118133545
      ],
      "min": [
        -6.165107727050781,
        -3.4264512062072754
      ],
      "type": "VEC2"
    },
    {
      "bufferView": 1,
      "byteOffset": 449328,
      "componentType": 5126,
      "count": 8011,
      "max": [
        0.9771432876586914,
        0.9926108121871948
      ],
      "min": [
        0.006836414337158203,
        0.007389187812805176
      ],
      "type": "VEC2"
    },
    {
      "bufferView": 0,
      "byteOffset": 390108,
      "componentType": 5125,
      "count": 32082,
      "type": "SCALAR"
    },
    {
      "bufferView": 2,
      "byteOffset": 804144,
      "componentType": 5126,
      "count": 1106,
      "max": [
        3.5915935039520264,
        -1.3839616775512695,
        0.15125851333141327
      ],
      "min": [
        3.516413450241089,
        -3.090665102005005,
        -0.15127791464328766
      ],
      "type": "VEC3"
    },
    {
      "bufferView": 2,
      "byteOffset": 817416,
      "componentType": 5126,
      "count": 1106,
      "max": [
        1.0,
        1.0,
        1.0
      ],
      "min": [
        0.0,
        -1.0,
        -1.0
      ],
      "type": "VEC3"
    },
    {
      "bufferView": 1,
      "byteOffset": 513416,
      "componentType": 5126,
      "count": 1106,
      "max": [
        2.0298659801483154,
        1.7400121688842773
      ],
      "min": [
        -1.8561015129089355,
        0.205816388130188
      ],
      "type": "VEC2"
    },
    {
      "bufferView": 1,
      "byteOffset": 522264,
      "componentType": 5126,
      "count": 1106,
      "max": [
        0.13959957659244537,
        0.9953029155731201
      ],
      "min": [
        0.09167565405368805,
        0.026672422885894775
      ],
      "type": "VEC2"
    },
    {
      "bufferView": 0,
      "byteOffset": 518436,
      "componentType": 5125,
      "count": 5616,
      "type": "SCALAR"
    },
    {
      "bufferView": 2,
      "byteOffset": 830688,
      "componentType": 5126,
      "count": 82,
      "max": [
        3.5915908813476563,
        -1.4060410261154175,
        0.12909553945064545
      ],
      "min": [
        3.591590404510498,
        -3.0686113834381104,
        -0.12911191582679749
      ],
      "type": "VEC3"
    },
    {
      "bufferView": 2,
      "byteOffset": 831672,
      "componentType": 5126,
      "count": 82,
      "max": [
        1.0,
        1.3363334801397286e-05,
        3.6621604522224516e-06
      ],
      "min": [
        1.0,
        -2.046568079094868e-05,
        -3.682931719595217e-06
      ],
      "type": "VEC3"
    },
    {
      "bufferView": 1,
      "byteOffset": 531112,
      "componentType": 5126,
      "count": 82,
      "max": [
        0.6954150199890137,
        1.7492012977600098
      ],
      "min": [
        0.30468717217445374,
        -0.7489194869995117
      ],
      "type": "VEC2"
    },
    {
      "bufferView": 0,
      "byteOffset": 540900,
      "componentType": 5125,
      "count": 252,
      "type": "SCALAR"
    },
    {
      "bufferView": 2,
      "byteOffset": 832656,
      "componentType": 5126,
      "count": 82,
      "max": [
        3.565519094467163,
        -1.4060410261154175,
        0.12909553945064545
      ],
      "min": [
        3.565518856048584,
        -3.0686113834381104,
        -0.12911191582679749
      ],
      "type": "VEC3"
    },
    {
      "bufferView": 2,
      "byteOffset": 833640,
      "componentType": 5126,
      "count": 82,
      "max": [
        1.0,
        1.6620284441160038e-05,
        1.8439793620927958e-06
      ],
      "min": [
        1.0,
        -1.6970820070127957e-05,
        -1.843979248405958e-06
      ],
      "type": "VEC3"
    },
    {
      "bufferView": 1,
      "byteOffset": 531768,
      "componentType": 5126,
      "count": 82,
      "max": [
        0.6294355392456055,
        1.3324148654937744
      ],
      "min": [
        0.3705787658691406,
        -0.33300065994262695
      ],
      "type": "VEC2"
    },
    {
      "bufferView": 1,
      "byteOffset": 532424,
      "componentType": 5126,
      "count": 82,
      "max": [
        0.6745308041572571,
        0.5193272233009338
      ],
      "min": [
        0.608309805393219,
        0.09327888488769531
      ],
      "type": "VEC2"
    },
    {
      "bufferView": 0,
      "byteOffset": 541908,
      "componentType": 5125,
      "count": 252,
      "type": "SCALAR"
    },
    {
      "bufferView": 2,
      "byteOffset": 834624,
      "componentType": 5126,
      "count": 400,
      "max": [
        2.1395277976989746,
        -7.359625816345215,
        0.07637868821620941
      ],
      "min": [
        -1.6874409914016724,
        -7.3693528175354,
        -0.07637768238782883
      ],
      "type": "VEC3"
    },
    {
      "bufferView": 2,
      "byteOffset": 839424,
      "componentType": 5126,
      "count": 400,
      "max": [
        0.7069360613822937,
        -0.7070515751838684,
        0.7069153785705566
      ],
      "min": [
        -0.7069323658943176,
        -0.7073496580123901,
        -0.7069180011749268
      ],
      "type": "VEC3"
    },
    {
      "bufferView": 1,
      "byteOffset": 533080,
      "componentType": 5126,
      "count": 400,
      "max": [
        1.50003182888031,
        0.20852535963058472
      ],
      "min": [
        -0.49996864795684814,
        0.11234217882156372
      ],
      "type": "VEC2"
    },
    {
      "bufferView": 1,
      "byteOffset": 536280,
      "componentType": 5126,
      "count": 400,
      "max": [
        0.32169145345687866,
        0.06477189064025879
      ],
      "min": [
        0.2809731960296631,
        0.02404564619064331
      ],
      "type": "VEC2"
    },
    {
      "bufferView": 0,
      "byteOffset": 542916,
      "componentType": 5125,
      "count": 1152,
      "type": "SCALAR"
    },
    {
      "bufferView": 2,
      "byteOffset": 844224,
      "componentType": 5126,
      "count": 3696,
      "max": [
        0.45277658104896545,
        -6.692543983459473,
        0.1580413281917572
      ],
      "min": [
        -0.452602744102478,
        -7.169689178466797,
        -0.1580403745174408
      ],
      "type": "VEC3"
    },
    {
      "bufferView": 2,
      "byteOffset": 888576,
      "componentType": 5126,
      "count": 3696,
      "max": [
        1.0,
        1.0,
        1.0
      ],
      "min": [
        -1.0,
        -1.0,
        -1.0
      ],
      "type": "VEC3"
    },
    {
      "bufferView": 1,
      "byteOffset": 539480,
      "componentType": 5126,
      "count": 3696,
      "max": [
        0.9327649474143982,
        0.9926108121871948
      ],
      "min": [
        0.006945625878870487,
        0.007389247417449951
      ],
      "type": "VEC2"
    },
    {
      "bufferView": 0,
      "byteOffset": 547524,
      "componentType": 5125,
      "count": 11058,
      "type": "SCALAR"
    },
    {
      "bufferView": 2,
      "byteOffset": 932928,
      "componentType": 5126,
      "count": 2445,
      "max": [
        0.49833521246910095,
        -6.625160217285156,
        0.06953085213899612
      ],
      "min": [
        -0.4981614351272583,
        -7.124850273132324,
        -0.06952989846467972
      ],
      "type": "VEC3"
    },
    {
      "bufferView": 2,
      "byteOffset": 962268,
      "componentType": 5126,
      "count": 2445,
      "max": [
        1.0,
        0.9423989057540894,
        1.0
      ],
      "min": [
        -1.0,
        -1.0,
        -1.0
      ],
      "type": "VEC3"
    },
    {
      "bufferView": 1,
      "byteOffset": 569048,
      "componentType": 5126,
      "count": 2445,
      "max": [
        0.9330291152000427,
        0.9916765689849854
      ],
      "min": [
        0.07490052282810211,
        0.024322569370269775
      ],
      "type": "VEC2"
    },
    {
      "bufferView": 0,
      "byteOffset": 591756,
      "componentType": 5125,
      "count": 6345,
      "type": "SCALAR"
    },
    {
      "bufferView": 2,
      "byteOffset": 991608,
      "componentType": 5126,
      "count": 204,
      "max": [
        0.4385640621185303,
        -7.154685974121094,
        0.14404217898845673
      ],
      "min": [
        -0.43839022517204285,
        -7.356675624847412,
        -0.144041046500206
      ],
      "type": "VEC3"
    },
    {
      "bufferView": 2,
      "byteOffset": 994056,
      "componentType": 5126,
      "count": 204,
      "max": [
        1.0,
        0.0,
        1.0
      ],
      "min": [
        -1.0,
        -0.7092633843421936,
        -1.0
      ],
      "type": "VEC3"
    },
    {
      "bufferView": 1,
      "byteOffset": 588608,
      "componentType": 5126,
      "count": 204,
      "max": [
        1.300013780593872,
        0.6961761713027954
      ],
      "min": [
        -0.6085610389709473,
        0.21181738376617432
      ],
      "type": "VEC2"
    },
    {
      "bufferView": 0,
      "byteOffset": 617136,
      "componentType": 5125,
      "count": 600,
      "type": "SCALAR"
    },
    {
      "bufferView": 2,
      "byteOffset": 996504,
      "componentType": 5126,
      "count": 634,
      "max": [
        3.591583013534546,
        7.369265556335449,
        0.3766114413738251
      ],
      "min": [
        -3.591309070587158,
        -7.369351863861084,
        -0.37659040093421936
      ],
      "type": "VEC3"
    },
    {
      "bufferView": 2,
      "byteOffset": 1004112,
      "componentType": 5126,
      "count": 634,
      "max": [
        0.999997615814209,
        0.9999868869781494,
        1.0
      ],
      "min": [
        -0.999997615814209,
        -1.0,
        -1.0
      ],
      "type": "VEC3"
    },
    {
      "bufferView": 1,
      "byteOffset": 590240,
      "componentType": 5126,
      "count": 634,
      "max": [
        1.445419192314148,
        0.988738477230072
      ],
      "min": [
        -0.6685863733291626,
        0.011061370372772217
      ],
      "type": "VEC2"
    },
    {
      "bufferView": 1,
      "byteOffset": 595312,
      "componentType": 5126,
      "count": 634,
      "max": [
        0.7081738114356995,
        1.0
      ],
      "min": [
        0.0,
        0.050100743770599365
      ],
      "type": "VEC2"
    },
    {
      "bufferView": 0,
      "byteOffset": 619536,
      "componentType": 5125,
      "count": 1572,
      "type": "SCALAR"
    },
    {
      "bufferView": 2,
      "byteOffset": 1011720,
      "componentType": 5126,
      "count": 32,
      "max": [
        2.146570920944214,
        -7.309876918792725,
        0.08026249706745148
      ],
      "min": [
        -1.688871145248413,
        -7.309898376464844,
        -0.08026133477687836
      ],
      "type": "VEC3"
    },
    {
      "bufferView": 2,
      "byteOffset": 1012104,
      "componentType": 5126,
      "count": 32,
      "max": [
        -1.2246468525851679e-16,
        -1.0,
        -2.220446049250313e-16
      ],
      "min": [
        -0.00012490322114899755,
        -1.0,
        -2.9813286346325185e-06
      ],
      "type": "VEC3"
    },
    {
      "bufferView": 1,
      "byteOffset": 600384,
      "componentType": 5126,
      "count": 32,
      "max": [
        0.6314965486526489,
        0.6765395402908325
      ],
      "min": [
        0.27664148807525635,
        0.32168442010879517
      ],
      "type": "VEC2"
    },
    {
      "bufferView": 1,
      "byteOffset": 600640,
      "componentType": 5126,
      "count": 32,
      "max": [
        0.9631405472755432,
        0.5169165134429932
      ],
      "min": [
        0.6082854866981506,
        0.1620613932609558
      ],
      "type": "VEC2"
    },
    {
      "bufferView": 0,
      "byteOffset": 625824,
      "componentType": 5125,
      "count": 48,
      "type": "SCALAR"
    },
    {
      "bufferView": 2,
      "byteOffset": 1012488,
      "componentType": 5126,
      "count": 566,
      "max": [
        0.7696084976196289,
        -7.3171491622924805,
        0.07446199655532837
      ],
      "min": [
        -0.7694997787475586,
        -7.3570990562438965,
        -0.07495036721229553
      ],
      "type": "VEC3"
    },
    {
      "bufferView": 2,
      "byteOffset": 1019280,
      "componentType": 5126,
      "count": 566,
      "max": [
        0.9968650341033936,
        0.0,
        0.9946541786193848
      ],
      "min": [
        -0.9989269375801086,
        -1.0,
        -0.9998651742935181
      ],
      "type": "VEC3"
    },
    {
      "bufferView": 1,
      "byteOffset": 600896,
      "componentType": 5126,
      "count": 566,
      "max": [
        0.9781308174133301,
        0.9941737055778503
      ],
      "min": [
        0.003139972686767578,
        0.004950463771820068
      ],
      "type": "VEC2"
    },
    {
      "bufferView": 0,
      "byteOffset": 626016,
      "componentType": 5125,
      "count": 2310,
      "type": "SCALAR"
    },
    {
      "bufferView": 2,
      "byteOffset": 1026072,
      "componentType": 5126,
      "count": 500,
      "max": [
        0.9636015892028809,
        7.304428577423096,
        0.2522304654121399
      ],
      "min": [
        -0.9640325307846069,
        7.118319034576416,
        0.24247485399246216
      ],
      "type": "VEC3"
    },
    {
      "bufferView": 2,
      "byteOffset": 1032072,
      "componentType": 5126,
      "count": 500,
      "max": [
        4.121176516491687e-06,
        -0.052298322319984436,
        0.9986315965652466
      ],
      "min": [
        -5.2172536015859805e-06,
        -0.05235980823636055,
        0.9986282587051392
      ],
      "type": "VEC3"
    },
    {
      "bufferView": 1,
      "byteOffset": 605424,
      "componentType": 5126,
      "count": 500,
      "max": [
        6.972367763519287,
        1.0
      ],
      "min": [
        0.0,
        0.4326673150062561
      ],
      "type": "VEC2"
    },
    {
      "bufferView": 0,
      "byteOffset": 635256,
      "componentType": 5125,
      "count": 1668,
      "type": "SCALAR"
    },
    {
      "bufferView": 2,
      "byteOffset": 1038072,
      "componentType": 5126,
      "count": 1241,
      "max": [
        3.470533847808838,
        7.30722713470459,
        0.3900575339794159
      ],
      "min": [
        -3.5325775146484375,
        -7.280380725860596,
        -0.7080262303352356
      ],
      "type": "VEC3"
    },
    {
      "bufferView": 2,
      "byteOffset": 1052964,
      "componentType": 5126,
      "count": 1241,
      "max": [
        1.0,
        1.0,
        1.0
      ],
      "min": [
        -1.0,
        -1.0,
        -1.0
      ],
      "type": "VEC3"
    },
    {
      "bufferView": 1,
      "byteOffset": 609424,
      "componentType": 5126,
      "count": 1241,
      "max": [
        1.2600326538085938,
        1.0
      ],
      "min": [
        0.0,
        -2.3893871307373047
      ],
      "type": "VEC2"
    },
    {
      "bufferView": 1,
      "byteOffset": 619352,
      "componentType": 5126,
      "count": 1241,
      "max": [
        1.0,
        1.0
      ],
      "min": [
        0.0,
        0.0
      ],
      "type": "VEC2"
    },
    {
      "bufferView": 0,
      "byteOffset": 641928,
      "componentType": 5125,
      "count": 3204,
      "type": "SCALAR"
    },
    {
      "bufferView": 2,
      "byteOffset": 1067856,
      "componentType": 5126,
      "count": 462,
      "max": [
        2.4288835525512695,
        6.162404537200928,
        -0.5087950825691223
      ],
      "min": [
        2.0225613117218018,
        4.03825569152832,
        -0.6349288821220398
      ],
      "type": "VEC3"
    },
    {
      "bufferView": 2,
      "byteOffset": 1073400,
      "componentType": 5126,
      "count": 462,
      "max": [
        0.6199508309364319,
        0.6199625134468079,
        -0.7846287488937378
      ],
      "min": [
        -0.6199494004249573,
        -0.6199522018432617,
        -1.0
      ],
      "type": "VEC3"
    },
    {
      "bufferView": 1,
      "byteOffset": 629280,
      "componentType": 5126,
      "count": 462,
      "max": [
        0.9826407432556152,
        0.9818865060806274
      ],
      "min": [
        0.02499455213546753,
        0.026126503944396973
      ],
      "type": "VEC2"
    },
    {
      "bufferView": 0,
      "byteOffset": 654744,
      "componentType": 5125,
      "count": 2580,
      "type": "SCALAR"
    },
    {
      "bufferView": 2,
      "byteOffset": 1078944,
      "componentType": 5126,
      "count": 402,
      "max": [
        2.4040846824645996,
        6.076356410980225,
        -0.49888262152671814
      ],
      "min": [
        2.0473599433898926,
        4.062941551208496,
        -0.5304168462753296
      ],
      "type": "VEC3"
    },
    {
      "bufferView": 2,
      "byteOffset": 1083768,
      "componentType": 5126,
      "count": 402,
      "max": [
        0.5075812339782715,
        0.50757896900177,
        -0.861599862575531
      ],
      "min": [
        -0.507583737373352,
        -0.5075720548629761,
        -1.0
      ],
      "type": "VEC3"
    },
    {
      "bufferView": 1,
      "byteOffset": 632976,
      "componentType": 5126,
      "count": 402,
      "max": [
        0.4799736440181732,
        0.47990548610687256
      ],
      "min": [
        0.024357890710234642,
        0.02299708127975464
      ],
      "type": "VEC2"
    },
    {
      "bufferView": 0,
      "byteOffset": 665064,
      "componentType": 5125,
      "count": 2220,
      "type": "SCALAR"
    },
    {
      "bufferView": 2,
      "byteOffset": 1088592,
      "componentType": 5126,
      "count": 101,
      "max": [
        0.8096610903739929,
        6.629870891571045,
        0.36896252632141113
      ],
      "min": [
        0.6533206105232239,
        6.474239826202393,
        0.3543691337108612
      ],
      "type": "VEC3"
    },
    {
      "bufferView": 2,
      "byteOffset": 1089804,
      "componentType": 5126,
      "count": 101,
      "max": [
        0.7639265060424805,
        0.7639545798301697,
        1.0
      ],
      "min": [
        -0.7639200091362,
        -0.763927698135376,
        0.645270049571991
      ],
      "type": "VEC3"
    },
    {
      "bufferView": 1,
      "byteOffset": 636192,
      "componentType": 5126,
      "count": 101,
      "max": [
        0.9799736738204956,
        0.47990548610687256
      ],
      "min": [
        0.5243579149246216,
        0.024289727210998535
      ],
      "type": "VEC2"
    },
    {
      "bufferView": 0,
      "byteOffset": 673944,
      "componentType": 5125,
      "count": 540,
      "type": "SCALAR"
    }
  ],
  "asset": {
    "extras": {
      "author": "Fa_Del (https://sketchfab.com/skibidisigma6931)",
      "license": "CC-BY-4.0 (http://creativecommons.org/licenses/by/4.0/)",
      "source": "https://sketchfab.com/3d-models/iphone-16-base-model-1cba18375eab4504b619905b6337a123",
      "title": "iPhone 16 Base Model"
    },
    "generator": "Sketchfab-16.56.0",
    "version": "2.0"
  },
  "bufferViews": [
    {
      "buffer": 0,
      "byteLength": 676104,
      "name": "floatBufferViews",
      "target": 34963
    },
    {
      "buffer": 0,
      "byteLength": 637000,
      "byteOffset": 676104,
      "byteStride": 8,
      "name": "floatBufferViews",
      "target": 34962
    },
    {
      "buffer": 0,
      "byteLength": 1091016,
      "byteOffset": 1313104,
      "byteStride": 12,
      "name": "floatBufferViews",
      "target": 34962
    }
  ],
  "buffers": [
    {
      "byteLength": 2404120,
      "uri": "scene.bin"
    }
  ],
  "extensionsUsed": [
    "KHR_materials_specular",
    "KHR_materials_clearcoat"
  ],
  "materials": [
    {
      "extensions": {
        "KHR_materials_specular": {
          "specularColorFactor": [
            1.0,
            1.0,
            1.0
          ],
          "specularFactor": 1.0
        }
      },
      "name": "d79c406d92ac2ea2b462",
      "pbrMetallicRoughness": {
        "baseColorFactor": [
          0.18,
          0.18,
          0.18,
          1.0
        ],
        "roughnessFactor": 0.5
      }
    },
    {
      "alphaMode": "BLEND",
      "extensions": {
        "KHR_materials_clearcoat": {
          "clearcoatFactor": 0.2,
          "clearcoatRoughnessFactor": 0.0125
        },
        "KHR_materials_specular": {
          "specularColorFactor": [
            1.0,
            1.0,
            1.0
          ],
          "specularFactor": 1.0
        }
      },
      "name": "8ed052ed6d3cd71ab5e3",
      "pbrMetallicRoughness": {
        "baseColorFactor": [
          0.0,
          0.0,
          0.0,
          0.1
        ],
        "metallicFactor": 0.2
      }
    },
    {
      "extensions": {
        "KHR_materials_clearcoat": {
          "clearcoatFactor": 0.2,
          "clearcoatRoughnessFactor": 0.0125
        },
        "KHR_materials_specular": {
          "specularColorFactor": [
            1.0,
            1.0,
            1.0
          ],
          "specularFactor": 1.0
        }
      },
      "name": "5155c9eac3acd76d34a9",
      "pbrMetallicRoughness": {
        "baseColorFactor": [
          0.008,
          0.008,
          0.008,
          1.0
        ],
        "metallicFactor": 0.275
      }
    },
    {
      "emissiveFactor": [
        1.0,
        1.0,
        1.0
      ],
      "extensions": {
        "KHR_materials_clearcoat": {
          "clearcoatFactor": 0.2,
          "clearcoatRoughnessFactor": 0.0125
        },
        "KHR_materials_specular": {
          "specularColorFactor": [
            1.0,
            1.0,
            1.0
          ],
          "specularFactor": 1.0
        }
      },
      "name": "4130c6244c49c5d5712e",
      "pbrMetallicRoughness": {
        "metallicFactor": 0.2
      }
    },
    {
      "extensions": {
        "KHR_materials_clearcoat": {
          "clearcoatFactor": 0.2,
          "clearcoatRoughnessFactor": 0.0125
        },
        "KHR_materials_specular": {
          "specularColorFactor": [
            1.0,
            1.0,
            1.0
          ],
          "specularFactor": 1.0
        }
      },
      "name": "a18b462c494e4fd29b4b",
      "pbrMetallicRoughness": {
        "baseColorFactor": [
          0.0,
          0.0,
          0.0,
          1.0
        ],
        "metallicFactor": 0.2
      }
    },
    {
      "extensions": {
        "KHR_materials_specular": {
          "specularColorFactor": [
            1.0,
            1.0,
            1.0
          ],
          "specularFactor": 1.0
        }
      },
      "name": "dee5a626f928a5fa4c28",
      "pbrMetallicRoughness": {
        "baseColorFactor": [
          0.18,
          0.18,
          0.18,
          1.0
        ],
        "roughnessFactor": 0.6
      }
    },
    {
      "alphaMode": "BLEND",
      "extensions": {
        "KHR_materials_clearcoat": {
          "clearcoatFactor": 1.0,
          "clearcoatRoughnessFactor": 0.01
        },
        "KHR_materials_specular": {
          "specularColorFactor": [
            1.0,
            1.0,
            1.0
          ],
          "specularFactor": 1.0
        }
      },
      "name": "e73cdd81f0248824c66f",
      "pbrMetallicRoughness": {
        "baseColorFactor": [
          0.0,
          0.0,
          0.0,
          0.4
        ],
        "roughnessFactor": 0.01
      }
    },
    {
      "extensions": {
        "KHR_materials_specular": {
          "specularColorFactor": [
            1.0,
            1.0,
            1.0
          ],
          "specularFactor": 1.0
        }
      },
      "name": "5d66e4713803a9e0ad46",
      "pbrMetallicRoughness": {
        "baseColorFactor": [
          0.0089,
          0.0089,
          0.008,
          1.0
        ],
        "roughnessFactor": 0.5
      }
    },
    {
      "extensions": {
        "KHR_materials_specular": {
          "specularColorFactor": [
            1.0,
            1.0,
            1.0
          ],
          "specularFactor": 1.0
        }
      },
      "name": "3b9594ccffa1d862f699",
      "pbrMetallicRoughness": {
        "baseColorFactor": [
          0.239,
          0.476,
          0.479,
          1.0
        ],
        "metallicFactor": 0.699,
        "roughnessFactor": 0.5
      }
    },
    {
      "extensions": {
        "KHR_materials_specular": {
          "specularColorFactor": [
            1.0,
            1.0,
            1.0
          ],
          "specularFactor": 1.0
        }
      },
      "name": "3a020e0705c66463c666",
      "pbrMetallicRoughness": {
        "baseColorFactor": [
          0.02,
          0.02,
          0.02,
          1.0
        ],
        "roughnessFactor": 0.33
      }
    },
    {
      "extensions": {
        "KHR_materials_specular": {
          "specularColorFactor": [
            1.0,
            1.0,
            1.0
          ],
          "specularFactor": 1.0
        }
      },
      "name": "8293fe999d10eb51dc07",
      "pbrMetallicRoughness": {
        "baseColorFactor": [
          0.027,
          0.101,
          0.11,
          1.0
        ],
        "metallicFactor": 0.1,
        "roughnessFactor": 0.36
      }
    },
    {
      "extensions": {
        "KHR_materials_specular": {
          "specularColorFactor": [
            1.0,
            1.0,
            1.0
          ],
          "specularFactor": 1.0
        }
      },
      "name": "b23162de4d8409eb15f1",
      "pbrMetallicRoughness": {
        "baseColorFactor": [
          0.432,
          0.531,
          0.54,
          1.0
        ],
        "roughnessFactor": 0.8
      }
    },
    {
      "emissiveFactor": [
        1.0,
        1.0,
        1.0
      ],
      "extensions": {
        "KHR_materials_clearcoat": {
          "clearcoatFactor": 0.2,
          "clearcoatRoughnessFactor": 0.5
        },
        "KHR_materials_specular": {
          "specularColorFactor": [
            1.0,
            1.0,
            1.0
          ],
          "specularFactor": 1.0
        }
      },
      "name": "e7fedd2cefc789ae4070",
      "pbrMetallicRoughness": {
        "metallicFactor": 0.666,
        "roughnessFactor": 0.333
      }
    },
    {
      "alphaMode": "BLEND",
      "extensions": {
        "KHR_materials_clearcoat": {
          "clearcoatFactor": 0.1,
          "clearcoatRoughnessFactor": 0.009
        },
        "KHR_materials_specular": {
          "specularColorFactor": [
            1.0,
            1.0,
            1.0
          ],
          "specularFactor": 1.0
        }
      },
      "name": "cf3bfd3f874c6277f037",
      "pbrMetallicRoughness": {
        "baseColorFactor": [
          1.0,
          1.0,
          1.0,
          0.1
        ],
        "roughnessFactor": 0.01
      }
    },
    {
      "alphaMode": "BLEND",
      "extensions": {
        "KHR_materials_specular": {
          "specularColorFactor": [
            1.0,
            1.0,
            1.0
          ],
          "specularFactor": 1.0
        }
      },
      "name": "483cd8d2505fcf4cc33c",
      "pbrMetallicRoughness": {
        "baseColorFactor": [
          0.008,
          0.008,
          0.008,
          0.8
        ]
      }
    },
    {
      "alphaMode": "BLEND",
      "extensions": {
        "KHR_materials_specular": {
          "specularColorFactor": [
            1.0,
            1.0,
            1.0
          ],
          "specularFactor": 1.0
        }
      },
      "name": "13fa87e9b9ea638526bb",
      "pbrMetallicRoughness": {
        "baseColorFactor": [
          0.1,
          0.1,
          0.1,
          0.1
        ],
        "roughnessFactor": 0.1
      }
    },
    {
      "extensions": {
        "KHR_materials_specular": {
          "specularColorFactor": [
            1.0,
            1.0,
            1.0
          ],
          "specularFactor": 1.0
        }
      },
      "name": "cecc91181f1dafcc19fa",
      "pbrMetallicRoughness": {
        "baseColorFactor": [
          0.158412,
          0.375063,
          0.380629,
          1.0
        ],
        "metallicFactor": 0.5,
        "roughnessFactor": 0.5
      }
    },
    {
      "alphaMode": "BLEND",
      "extensions": {
        "KHR_materials_clearcoat": {
          "clearcoatFactor": 1.0,
          "clearcoatRoughnessFactor": 0.01
        },
        "KHR_materials_specular": {
          "specularColorFactor": [
            1.0,
            1.0,
            1.0
          ],
          "specularFactor": 1.0
        }
      },
      "name": "2df164b7997e629e4d7e",
      "pbrMetallicRoughness": {
        "baseColorFactor": [
          0.022,
          0.075,
          0.09,
          0.1
        ]
      }
    },
    {
      "extensions": {
        "KHR_materials_specular": {
          "specularColorFactor": [
            1.0,
            1.0,
            1.0
          ],
          "specularFactor": 1.0
        }
      },
      "name": "103fc094f5cdada7aa57",
      "pbrMetallicRoughness": {
        "baseColorFactor": [
          0.18,
          0.18,
          0.18,
          1.0
        ],
        "roughnessFactor": 0.5
      }
    },
    {
      "alphaMode": "BLEND",
      "extensions": {
        "KHR_materials_clearcoat": {
          "clearcoatFactor": 1.0,
          "clearcoatRoughnessFactor": 0.01
        },
        "KHR_materials_specular": {
          "specularColorFactor": [
            1.0,
            1.0,
            1.0
          ],
          "specularFactor": 1.0
        }
      },
      "name": "25fa7b29639901e1f310",
      "pbrMetallicRoughness": {
        "baseColorFactor": [
          1.0,
          1.0,
          1.0,
          0.15
        ],
        "metallicFactor": 0.9,
        "roughnessFactor": 0.01
      }
    },
    {
      "extensions": {
        "KHR_materials_specular": {
          "specularColorFactor": [
            1.0,
            1.0,
            1.0
          ],
          "specularFactor": 1.0
        }
      },
      "name": "299a045923a299d97c82",
      "pbrMetallicRoughness": {
        "baseColorFactor": [
          0.238398,
          0.473531,
          0.47932,
          1.0
        ],
        "metallicFactor": 0.25,
        "roughnessFactor": 0.35
      }
    },
    {
      "extensions": {
        "KHR_materials_clearcoat": {
          "clearcoatFactor": 1.0,
          "clearcoatRoughnessFactor": 0.01
        }
      },
      "name": "82823ff934002f16e6e0",
      "pbrMetallicRoughness": {
        "baseColorFactor": [
          0.229,
          0.394,
          0.409,
          1.0
        ],
        "metallicFactor": 0.01
      }
    },
    {
      "extensions": {
        "KHR_materials_specular": {
          "specularColorFactor": [
            1.0,
            1.0,
            1.0
          ],
          "specularFactor": 1.0
        }
      },
      "name": "b4ad12de1fcbdd61166e",
      "pbrMetallicRoughness": {
        "baseColorFactor": [
          0.229,
          0.394,
          0.409,
          1.0
        ],
        "metallicFactor": 0.9,
        "roughnessFactor": 0.2
      }
    },
    {
      "extensions": {
        "KHR_materials_clearcoat": {
          "clearcoatFactor": 0.7,
          "clearcoatRoughnessFactor": 0.3
        },
        "KHR_materials_specular": {
          "specularColorFactor": [
            1.0,
            1.0,
            1.0
          ],
          "specularFactor": 1.0
        }
      },
      "name": "ec12d37933cc378c1226",
      "pbrMetallicRoughness": {
        "baseColorFactor": [
          0.239,
          0.476,
          0.479,
          1.0
        ],
        "metallicFactor": 0.3,
        "roughnessFactor": 0.5
      }
    },
    {
      "extensions": {
        "KHR_materials_specular": {
          "specularColorFactor": [
            1.0,
            1.0,
            1.0
          ],
          "specularFactor": 1.0
        }
      },
      "name": "bfb52a03e58fd454437d",
      "pbrMetallicRoughness": {
        "baseColorFactor": [
          0.18,
          0.357,
          0.36,
          1.0
        ],
        "metallicFactor": 0.8,
        "roughnessFactor": 0.525
      }
    },
    {
      "extensions": {
        "KHR_materials_specular": {
          "specularColorFactor": [
            1.0,
            1.0,
            1.0
          ],
          "specularFactor": 1.0
        }
      },
      "name": "906edd797edf30e1b5ca",
      "pbrMetallicRoughness": {
        "baseColorFactor": [
          0.239,
          0.476,
          0.479,
          1.0
        ],
        "metallicFactor": 0.8,
        "roughnessFactor": 0.525
      }
    },
    {
      "extensions": {
        "KHR_materials_specular": {
          "specularColorFactor": [
            1.0,
            1.0,
            1.0
          ],
          "specularFactor": 1.0
        }
      },
      "name": "c306087c056eb775dddc",
      "pbrMetallicRoughness": {
        "baseColorFactor": [
          0.24,
          0.389,
          0.402,
          1.0
        ],
        "metallicFactor": 0.9,
        "roughnessFactor": 0.5
      }
    },
    {
      "alphaMode": "BLEND",
      "extensions": {
        "KHR_materials_clearcoat": {
          "clearcoatFactor": 1.0,
          "clearcoatRoughnessFactor": 0.01
        },
        "KHR_materials_specular": {
          "specularColorFactor": [
            1.0,
            1.0,
            1.0
          ],
          "specularFactor": 1.0
        }
      },
      "name": "4a6c96a0e91c63810afa",
      "pbrMetallicRoughness": {
        "baseColorFactor": [
          0.24,
          0.389,
          0.402,
          0.7
        ],
        "roughnessFactor": 0.5
      }
    },
    {
      "extensions": {
        "KHR_materials_specular": {
          "specularColorFactor": [
            1.0,
            1.0,
            1.0
          ],
          "specularFactor": 1.0
        }
      },
      "name": "4e2775e8ab652e8ec892",
      "pbrMetallicRoughness": {
        "baseColorFactor": [
          0.24,
          0.389,
          0.402,
          1.0
        ],
        "roughnessFactor": 0.5
      }
    },
    {
      "extensions": {
        "KHR_materials_clearcoat": {
          "clearcoatFactor": 0.1,
          "clearcoatRoughnessFactor": 0.15
        },
        "KHR_materials_specular": {
          "specularColorFactor": [
            1.0,
            1.0,
            1.0
          ],
          "specularFactor": 1.0
        }
      },
      "name": "c1f38c49c59514a1f2d9",
      "pbrMetallicRoughness": {
        "baseColorFactor": [
          0.04,
          0.04,
          0.04,
          1.0
        ],
        "metallicFactor": 0.6,
        "roughnessFactor": 0.5
      }
    },
    {
      "extensions": {
        "KHR_materials_specular": {
          "specularColorFactor": [
            1.0,
            1.0,
            1.0
          ],
          "specularFactor": 1.0
        }
      },
      "name": "b8c5608ba04260006bf0",
      "pbrMetallicRoughness": {
        "baseColorFactor": [
          0.0306108,
          0.142192,
          0.154263,
          1.0
        ],
        "roughnessFactor": 0.6
      }
    },
    {
      "extensions": {
        "KHR_materials_specular": {
          "specularColorFactor": [
            1.0,
            1.0,
            1.0
          ],
          "specularFactor": 1.0
        }
      },
      "name": "091912dc178e0b223122",
      "pbrMetallicRoughness": {
        "baseColorFactor": [
          0.1,
          0.1,
          0.1,
          1.0
        ],
        "roughnessFactor": 0.35
      }
    },
    {
      "extensions": {
        "KHR_materials_specular": {
          "specularColorFactor": [
            1.0,
            1.0,
            1.0
          ],
          "specularFactor": 1.0
        }
      },
      "name": "6a2b4bcac74a0306e361",
      "pbrMetallicRoughness": {
        "baseColorFactor": [
          0.189,
          0.427,
          0.449,
          1.0
        ],
        "roughnessFactor": 0.5
      }
    },
    {
      "extensions": {
        "KHR_materials_specular": {
          "specularColorFactor": [
            1.0,
            1.0,
            1.0
          ],
          "specularFactor": 1.0
        }
      },
      "name": "f960f58dcaeee45e59c1",
      "pbrMetallicRoughness": {
        "baseColorFactor": [
          0.128,
          0.276,
          0.289,
          1.0
        ],
        "metallicFactor": 0.8,
        "roughnessFactor": 0.45
      }
    },
    {
      "extensions": {
        "KHR_materials_specular": {
          "specularColorFactor": [
            1.0,
            1.0,
            1.0
          ],
          "specularFactor": 1.0
        }
      },
      "name": "50c2259ef1b62ea11389",
      "pbrMetallicRoughness": {
        "baseColorFactor": [
          0.18,
          0.18,
          0.18,
          1.0
        ],
        "roughnessFactor": 0.5
      }
    },
    {
      "extensions": {
        "KHR_materials_specular": {
          "specularColorFactor": [
            1.0,
            1.0,
            1.0
          ],
          "specularFactor": 1.0
        }
      },
      "name": "994433e619f1f1513042",
      "pbrMetallicRoughness": {
        "baseColorFactor": [
          0.04,
          0.04,
          0.04,
          1.0
        ],
        "metallicFactor": 0.4,
        "roughnessFactor": 0.15
      }
    },
    {
      "extensions": {
        "KHR_materials_specular": {
          "specularColorFactor": [
            1.0,
            1.0,
            1.0
          ],
          "specularFactor": 1.0
        }
      },
      "name": "16d76ca3cbeebab956f0",
      "pbrMetallicRoughness": {
        "baseColorFactor": [
          0.019,
          0.019,
          0.019,
          1.0
        ],
        "roughnessFactor": 0.33
      }
    },
    {
      "extensions": {
        "KHR_materials_specular": {
          "specularColorFactor": [
            1.0,
            1.0,
            1.0
          ],
          "specularFactor": 1.0
        }
      },
      "name": "15e105904fe114289c62",
      "pbrMetallicRoughness": {
        "baseColorFactor": [
          0.08,
          0.08,
          0.08,
          1.0
        ],
        "roughnessFactor": 0.7
      }
    },
    {
      "alphaMode": "BLEND",
      "extensions": {
        "KHR_materials_clearcoat": {
          "clearcoatFactor": 0.1,
          "clearcoatRoughnessFactor": 0.001
        },
        "KHR_materials_specular": {
          "specularColorFactor": [
            1.0,
            1.0,
            1.0
          ],
          "specularFactor": 1.0
        }
      },
      "name": "a86dab30a71ca989ac8c",
      "pbrMetallicRoughness": {
        "baseColorFactor": [
          0.0,
          0.0,
          0.0,
          0.8
        ],
        "metallicFactor": 0.8,
        "roughnessFactor": 0.01
      }
    }
  ],
  "meshes": [
    {
      "name": "Object_0",
      "primitives": [
        {
          "attributes": {
            "NORMAL": 1,
            "POSITION": 0,
            "TEXCOORD_0": 2
          },
          "indices": 3,
          "material": 0,
          "mode": 4
        }
      ]
    },
    {
      "name": "Object_1",
      "primitives": [
        {
          "attributes": {
            "NORMAL": 5,
            "POSITION": 4,
            "TEXCOORD_0": 6
          },
          "indices": 7,
          "material": 1,
          "mode": 4
        }
      ]
    },
    {
      "name": "Object_2",
      "primitives": [
        {
          "attributes": {
            "NORMAL": 9,
            "POSITION": 8,
            "TEXCOORD_0": 10
          },
          "indices": 11,
          "material": 2,
          "mode": 4
        }
      ]
    },
    {
      "name": "Object_3",
      "primitives": [
        {
          "attributes": {
            "NORMAL": 13,
            "POSITION": 12,
            "TEXCOORD_0": 14
          },
          "indices": 15,
          "material": 3,
          "mode": 4
        }
      ]
    },
    {
      "name": "Object_4",
      "primitives": [
        {
          "attributes": {
            "NORMAL": 17,
            "POSITION": 16,
            "TEXCOORD_0": 18,
            "TEXCOORD_1": 19
          },
          "indices": 20,
          "material": 4,
          "mode": 4
        }
      ]
    },
    {
      "name": "Object_5",
      "primitives": [
        {
          "attributes": {
            "NORMAL": 22,
            "POSITION": 21,
            "TEXCOORD_0": 23
          },
          "indices": 24,
          "material": 5,
          "mode": 4
        }
      ]
    },
    {
      "name": "Object_6",
      "primitives": [
        {
          "attributes": {
            "NORMAL": 26,
            "POSITION": 25,
            "TEXCOORD_0": 27
          },
          "indices": 28,
          "material": 6,
          "mode": 4
        }
      ]
    },
    {
      "name": "Object_7",
      "primitives": [
        {
          "attributes": {
            "NORMAL": 30,
            "POSITION": 29,
            "TEXCOORD_0": 31
          },
          "indices": 32,
          "material": 7,
          "mode": 4
        }
      ]
    },
    {
      "name": "Object_8",
      "primitives": [
        {
          "attributes": {
            "NORMAL": 34,
            "POSITION": 33,
            "TEXCOORD_0": 35,
            "TEXCOORD_1": 36,
            "TEXCOORD_2": 37
          },
          "indices": 38,
          "material": 8,
          "mode": 4
        }
      ]
    },
    {
      "name": "Object_9",
      "primitives": [
        {
          "attributes": {
            "NORMAL": 40,
            "POSITION": 39,
            "TEXCOORD_0": 41
          },
          "indices": 42,
          "material": 9,
          "mode": 4
        }
      ]
    },
    {
      "name": "Object_10",
      "primitives": [
        {
          "attributes": {
            "NORMAL": 44,
            "POSITION": 43,
            "TEXCOORD_0": 45,
            "TEXCOORD_1": 46,
            "TEXCOORD_2": 47
          },
          "indices": 48,
          "material": 10,
          "mode": 4
        }
      ]
    },
    {
      "name": "Object_11",
      "primitives": [
        {
          "attributes": {
            "NORMAL": 50,
            "POSITION": 49,
            "TEXCOORD_0": 51,
            "TEXCOORD_1": 52,
            "TEXCOORD_2": 53
          },
          "indices": 54,
          "material": 11,
          "mode": 4
        }
      ]
    },
    {
      "name": "Object_12",
      "primitives": [
        {
          "attributes": {
            "NORMAL": 56,
            "POSITION": 55,
            "TEXCOORD_0": 57
          },
          "indices": 58,
          "material": 12,
          "mode": 4
        }
      ]
    },
    {
      "name": "Object_13",
      "primitives": [
        {
          "attributes": {
            "NORMAL": 60,
            "POSITION": 59,
            "TEXCOORD_0": 61
          },
          "indices": 62,
          "material": 13,
          "mode": 4
        }
      ]
    },
    {
      "name": "Object_14",
      "primitives": [
        {
          "attributes": {
            "NORMAL": 64,
            "POSITION": 63,
            "TEXCOORD_0": 65,
            "TEXCOORD_1": 66
          },
          "indices": 67,
          "material": 14,
          "mode": 4
        }
      ]
    },
    {
      "name": "Object_15",
      "primitives": [
        {
          "attributes": {
            "NORMAL": 69,
            "POSITION": 68,
            "TEXCOORD_0": 70,
            "TEXCOORD_1": 71
          },
          "indices": 72,
          "material": 15,
          "mode": 4
        }
      ]
    },
    {
      "name": "Object_16",
      "primitives": [
        {
          "attributes": {
            "NORMAL": 74,
            "POSITION": 73,
            "TEXCOORD_0": 75,
            "TEXCOORD_1": 76
          },
          "indices": 77,
          "material": 16,
          "mode": 4
        }
      ]
    },
    {
      "name": "Object_17",
      "primitives": [
        {
          "attributes": {
            "NORMAL": 79,
            "POSITION": 78,
            "TEXCOORD_0": 80,
            "TEXCOORD_1": 81
          },
          "indices": 82,
          "material": 17,
          "mode": 4
        }
      ]
    },
    {
      "name": "Object_18",
      "primitives": [
        {
          "attributes": {
            "NORMAL": 84,
            "POSITION": 83,
            "TEXCOORD_0": 85,
            "TEXCOORD_1": 86
          },
          "indices": 87,
          "material": 18,
          "mode": 4
        }
      ]
    },
    {
      "name": "Object_19",
      "primitives": [
        {
          "attributes": {
            "NORMAL": 89,
            "POSITION": 88,
            "TEXCOORD_0": 90,
            "TEXCOORD_1": 91
          },
          "indices": 92,
          "material": 19,
          "mode": 4
        }
      ]
    },
    {
      "name": "Object_20",
      "primitives": [
        {
          "attributes": {
            "NORMAL": 94,
            "POSITION": 93,
            "TEXCOORD_0": 95,
            "TEXCOORD_1": 96
          },
          "indices": 97,
          "material": 20,
          "mode": 4
        }
      ]
    },
    {
      "name": "Object_21",
      "primitives": [
        {
          "attributes": {
            "NORMAL": 99,
            "POSITION": 98,
            "TEXCOORD_0": 100,
            "TEXCOORD_1": 101
          },
          "indices": 102,
          "material": 21,
          "mode": 4
        }
      ]
    },
    {
      "name": "Object_22",
      "primitives": [
        {
          "attributes": {
            "NORMAL": 104,
            "POSITION": 103,
            "TEXCOORD_0": 105,
            "TEXCOORD_1": 106
          },
          "indices": 107,
          "material": 22,
          "mode": 4
        }
      ]
    },
    {
      "name": "Object_23",
      "primitives": [
        {
          "attributes": {
            "NORMAL": 109,
            "POSITION": 108,
            "TEXCOORD_0": 110,
            "TEXCOORD_1": 111
          },
          "indices": 112,
          "material": 23,
          "mode": 4
        }
      ]
    },
    {
      "name": "Object_24",
      "primitives": [
        {
          "attributes": {
            "NORMAL": 114,
            "POSITION": 113,
            "TEXCOORD_0": 115
          },
          "indices": 116,
          "material": 24,
          "mode": 4
        }
      ]
    },
    {
      "name": "Object_25",
      "primitives": [
        {
          "attributes": {
            "NORMAL": 118,
            "POSITION": 117,
            "TEXCOORD_0": 119,
            "TEXCOORD_1": 120
          },
          "indices": 121,
          "material": 25,
          "mode": 4
        }
      ]
    },
    {
      "name": "Object_26",
      "primitives": [
        {
          "attributes": {
            "NORMAL": 123,
            "POSITION": 122,
            "TEXCOORD_0": 124,
            "TEXCOORD_1": 125
          },
          "indices": 126,
          "material": 26,
          "mode": 4
        }
      ]
    },
    {
      "name": "Object_27",
      "primitives": [
        {
          "attributes": {
            "NORMAL": 128,
            "POSITION": 127,
            "TEXCOORD_0": 129
          },
          "indices": 130,
          "material": 27,
          "mode": 4
        }
      ]
    },
    {
      "name": "Object_28",
      "primitives": [
        {
          "attributes": {
            "NORMAL": 132,
            "POSITION": 131,
            "TEXCOORD_0": 133,
            "TEXCOORD_1": 134
          },
          "indices": 135,
          "material": 28,
          "mode": 4
        }
      ]
    },
    {
      "name": "Object_29",
      "primitives": [
        {
          "attributes": {
            "NORMAL": 137,
            "POSITION": 136,
            "TEXCOORD_0": 138,
            "TEXCOORD_1": 139
          },
          "indices": 140,
          "material": 29,
          "mode": 4
        }
      ]
    },
    {
      "name": "Object_30",
      "primitives": [
        {
          "attributes": {
            "NORMAL": 142,
            "POSITION": 141,
            "TEXCOORD_0": 143
          },
          "indices": 144,
          "material": 30,
          "mode": 4
        }
      ]
    },
    {
      "name": "Object_31",
      "primitives": [
        {
          "attributes": {
            "NORMAL": 146,
            "POSITION": 145,
            "TEXCOORD_0": 147
          },
          "indices": 148,
          "material": 31,
          "mode": 4
        }
      ]
    },
    {
      "name": "Object_32",
      "primitives": [
        {
          "attributes": {
            "NORMAL": 150,
            "POSITION": 149,
            "TEXCOORD_0": 151
          },
          "indices": 152,
          "material": 32,
          "mode": 4
        }
      ]
    },
    {
      "name": "Object_33",
      "primitives": [
        {
          "attributes": {
            "NORMAL": 154,
            "POSITION": 153,
            "TEXCOORD_0": 155,
            "TEXCOORD_1": 156
          },
          "indices": 157,
          "material": 33,
          "mode": 4
        }
      ]
    },
    {
      "name": "Object_34",
      "primitives": [
        {
          "attributes": {
            "NORMAL": 159,
            "POSITION": 158,
            "TEXCOORD_0": 160,
            "TEXCOORD_1": 161
          },
          "indices": 162,
          "material": 34,
          "mode": 4
        }
      ]
    },
    {
      "name": "Object_35",
      "primitives": [
        {
          "attributes": {
            "NORMAL": 164,
            "POSITION": 163,
            "TEXCOORD_0": 165
          },
          "indices": 166,
          "material": 35,
          "mode": 4
        }
      ]
    },
    {
      "name": "Object_36",
      "primitives": [
        {
          "attributes": {
            "NORMAL": 168,
            "POSITION": 167,
            "TEXCOORD_0": 169
          },
          "indices": 170,
          "material": 36,
          "mode": 4
        }
      ]
    },
    {
      "name": "Object_37",
      "primitives": [
        {
          "attributes": {
            "NORMAL": 172,
            "POSITION": 171,
            "TEXCOORD_0": 173,
            "TEXCOORD_1": 174
          },
          "indices": 175,
          "material": 37,
          "mode": 4
        }
      ]
    },
    {
      "name": "Object_38",
      "primitives": [
        {
          "attributes": {
            "NORMAL": 177,
            "POSITION": 176,
            "TEXCOORD_0": 178
          },
          "indices": 179,
          "material": 38,
          "mode": 4
        }
      ]
    },
    {
      "name": "Object_39",
      "primitives": [
        {
          "attributes": {
            "NORMAL": 181,
            "POSITION": 180,
            "TEXCOORD_0": 182
          },
          "indices": 183,
          "material": 38,
          "mode": 4
        }
      ]
    },
    {
      "name": "Object_40",
      "primitives": [
        {
          "attributes": {
            "NORMAL": 185,
            "POSITION": 184,
            "TEXCOORD_0": 186
          },
          "indices": 187,
          "material": 38,
          "mode": 4
        }
      ]
    }
  ],
  "nodes": [
    {
      "children": [
        1
      ],
      "matrix": [
        1.0,
        0.0,
        0.0,
        0.0,
        0.0,
        2.220446049250313e-16,
        -1.0,
        0.0,
        0.0,
        1.0,
        2.220446049250313e-16,
        0.0,
        0.0,
        0.0,
        0.0,
        1.0
      ],
      "name": "Sketchfab_model"
    },
    {
      "children": [
        2
      ],
      "name": "root"
    },
    {
      "children": [
        3
      ],
      "matrix": [
        1.0,
        0.0,
        0.0,
        0.0,
        0.0,
        2.220446049250313e-16,
        1.0,
        0.0,
        0.0,
        -1.0,
        2.220446049250313e-16,
        0.0,
        0.0,
        0.0,
        0.0,
        1.0
      ],
      "name": "GLTF_SceneRootNode"
    },
    {
      "children": [
        4
      ],
      "matrix": [
        1.0,
        0.0,
        0.0,
        0.0,
        0.0,
        3.82856880455694e-16,
        -1.0,
        0.0,
        0.0,
        1.0,
        3.82856880455694e-16,
        0.0,
        0.0,
        0.0,
        0.0,
        1.0
      ],
      "name": "Sketchfab_model_0"
    },
    {
      "children": [
        5
      ],
      "name": "root_1"
    },
    {
      "children": [
        6
      ],
      "matrix": [
        1.0,
        0.0,
        0.0,
        0.0,
        0.0,
        2.220446049250313e-16,
        1.0,
        0.0,
        0.0,
        -1.0,
        2.220446049250313e-16,
        0.0,
        0.0,
        0.0,
        0.0,
        1.0
      ],
      "name": "GLTF_SceneRootNode_2"
    },
    {
      "children": [
        7
      ],
      "name": "1fadebfa5ff46f71a057_0_3"
    },
    {
      "children": [
        8
      ],
      "name": "asset_1_4"
    },
    {
      "children": [
        9
      ],
      "name": "7a7a4b99de117185ec52_2_5"
    },
    {
      "children": [
        10
      ],
      "name": "31414f164c1c42dfeb54_3_6"
    },
    {
      "children": [
        11
      ],
      "name": "73c35487050dc0613459_4_7"
    },
    {
      "children": [
        12,
        29,
        86,
        133,
        136,
        139,
        142
      ],
      "name": "4d306193acb4c27666a3_5_8"
    },
    {
      "children": [
        13,
        20,
        23,
        26
      ],
      "name": "60777961f2cdfc9b4e92_6_9"
    },
    {
      "children": [
        14,
        17
      ],
      "name": "536c3a8bb31b0de6d981_7_10"
    },
    {
      "children": [
        15
      ],
      "name": "0b9dca3a6dd1e542a185_8_11"
    },
    {
      "children": [
        16
      ],
      "name": "Object_12_12"
    },
    {
      "mesh": 0,
      "name": "Object_16"
    },
    {
      "children": [
        18
      ],
      "name": "ca6475bb0604b76a74bf_9_13"
    },
    {
      "children": [
        19
      ],
      "name": "Object_14_14"
    },
    {
      "mesh": 1,
      "name": "Object_19"
    },
    {
      "children": [
        21
      ],
      "name": "26f406a9829e95810035_10_15"
    },
    {
      "children": [
        22
      ],
      "name": "Object_16_16"
    },
    {
      "mesh": 2,
      "name": "Object_22"
    },
    {
      "children": [
        24
      ],
      "name": "baf05346569e3be49c2a_11_17"
    },
    {
      "children": [
        25
      ],
      "name": "Object_18_18"
    },
    {
      "mesh": 3,
      "name": "Object_25"
    },
    {
      "children": [
        27
      ],
      "name": "9098d6c8e67d765bddef_12_19"
    },
    {
      "children": [
        28
      ],
      "name": "Object_20_20"
    },
    {
      "mesh": 4,
      "name": "Object_28"
    },
    {
      "children": [
        30,
        33,
        36,
        39,
        42,
        45,
        48,
        58,
        61,
        64,
        67,
        70,
        73,
        76,
        79
      ],
      "name": "064db0d9fa0c7610bad9_13_21"
    },
    {
      "children": [
        31
      ],
      "name": "efb2dcd20422b8fcf4c2_14_22"
    },
    {
      "children": [
        32
      ],
      "name": "Object_23_23"
    },
    {
      "mesh": 5,
      "name": "Object_32"
    },
    {
      "children": [
        34
      ],
      "name": "532ace4dcec099b449db_15_24"
    },
    {
      "children": [
        35
      ],
      "name": "Object_25_25"
    },
    {
      "mesh": 6,
      "name": "Object_35"
    },
    {
      "children": [
        37
      ],
      "name": "b68cd311101cb05b4609_16_26"
    },
    {
      "children": [
        38
      ],
      "name": "Object_27_27"
    },
    {
      "mesh": 7,
      "name": "Object_38"
    },
    {
      "children": [
        40
      ],
      "name": "2544f5343596116b3326_17_28"
    },
    {
      "children": [
        41
      ],
      "name": "Object_29_29"
    },
    {
      "mesh": 8,
      "name": "Object_41"
    },
    {
      "children": [
        43
      ],
      "name": "fed081b75d44b27ac44d_18_30"
    },
    {
      "children": [
        44
      ],
      "name": "Object_31_31"
    },
    {
      "mesh": 9,
      "name": "Object_44"
    },
    {
      "children": [
        46
      ],
      "name": "92b17cae6abca19c4de6_19_32"
    },
    {
      "children": [
        47
      ],
      "name": "Object_33_33"
    },
    {
      "mesh": 10,
      "name": "Object_47"
    },
    {
      "children": [
        49,
        52,
        55
      ],
      "name": "e8f28858596add012a28_20_34"
    },
    {
      "children": [
        50
      ],
      "name": "cf157f81961bba507f22_21_35"
    },
    {
      "children": [
        51
      ],
      "name": "Object_36_36"
    },
    {
      "mesh": 11,
      "name": "Object_51"
    },
    {
      "children": [
        53
      ],
      "name": "c0c967040893828b6cdd_22_37"
    },
    {
      "children": [
        54
      ],
      "name": "Object_38_38"
    },
    {
      "mesh": 12,
      "name": "Object_54"
    },
    {
      "children": [
        56
      ],
      "name": "29feb9e8dfb497a018e2_23_39"
    },
    {
      "children": [
        57
      ],
      "name": "Object_40_40"
    },
    {
      "mesh": 13,
      "name": "Object_57"
    },
    {
      "children": [
        59
      ],
      "name": "443220deaff4297ae008_24_41"
    },
    {
      "children": [
        60
      ],
      "name": "Object_42_42"
    },
    {
      "mesh": 14,
      "name": "Object_60"
    },
    {
      "children": [
        62
      ],
      "name": "8c1f8625a38df01a9f38_25_43"
    },
    {
      "children": [
        63
      ],
      "name": "Object_44_44"
    },
    {
      "mesh": 15,
      "name": "Object_63"
    },
    {
      "children": [
        65
      ],
      "name": "141021ca0becd9ed6dbe_26_45"
    },
    {
      "children": [
        66
      ],
      "name": "Object_46_46"
    },
    {
      "mesh": 16,
      "name": "Object_66"
    },
    {
      "children": [
        68
      ],
      "name": "85f91bea2bfe5b75ec89_27_47"
    },
    {
      "children": [
        69
      ],
      "name": "Object_48_48"
    },
    {
      "mesh": 17,
      "name": "Object_69"
    },
    {
      "children": [
        71
      ],
      "name": "f3da29b6ec56d3aeb98f_28_49"
    },
    {
      "children": [
        72
      ],
      "name": "Object_50_50"
    },
    {
      "mesh": 18,
      "name": "Object_72"
    },
    {
      "children": [
        74
      ],
      "name": "311318fcdb4adc8f5147_29_51"
    },
    {
      "children": [
        75
      ],
      "name": "Object_52_52"
    },
    {
      "mesh": 19,
      "name": "Object_75"
    },
    {
      "children": [
        77
      ],
      "name": "b71ded67658172ddf8eb_30_53"
    },
    {
      "children": [
        78
      ],
      "name": "Object_54_54"
    },
    {
      "mesh": 20,
      "name": "Object_78"
    },
    {
      "children": [
        80,
        83
      ],
      "name": "b5873d5d9e4335907678_31_55"
    },
    {
      "children": [
        81
      ],
      "matrix": [
        1.0,
        0.0,
        0.0,
        0.0,
        0.0,
        1.0,
        0.0,
        0.0,
        0.0,
        0.0,
        1.0,
        0.0,
        0.0,
        0.0,
        0.03707710653543472,
        1.0
      ],
      "name": "0d65a2b6dd06c454ddfa_32_56"
    },
    {
      "children": [
        82
      ],
      "name": "Object_57_57"
    },
    {
      "mesh": 21,
      "name": "Object_82"
    },
    {
      "children": [
        84
      ],
      "name": "c4b277b8552afbe4a882_33_58"
    },
    {
      "children": [
        85
      ],
      "name": "Object_59_59"
    },
    {
      "mesh": 22,
      "name": "Object_85"
    },
    {
      "children": [
        87,
        90,
        94,
        97,
        107,
        111,
        121,
        124,
        127,
        130
      ],
      "name": "927806a0d93ac51d4334_34_60"
    },
    {
      "children": [
        88
      ],
      "name": "e3a6c9417b4935be6f1f_35_61"
    },
    {
      "children": [
        89
      ],
      "name": "Object_62_62"
    },
    {
      "mesh": 23,
      "name": "Object_89"
    },
    {
      "children": [
        91
      ],
      "name": "dff8cc7dd2e29d5fe69e_36_63"
    },
    {
      "children": [
        92
      ],
      "name": "6e78626027fa9bdf99db_37_64"
    },
    {
      "children": [
        93
      ],
      "name": "Object_65_65"
    },
    {
      "mesh": 24,
      "name": "Object_93"
    },
    {
      "children": [
        95
      ],
      "name": "ec8f03089e5e1a54d8db_38_66"
    },
    {
      "children": [
        96
      ],
      "name": "Object_67_67"
    },
    {
      "mesh": 25,
      "name": "Object_96"
    },
    {
      "children": [
        98,
        101,
        104
      ],
      "name": "ce64b061437c1b871afc_39_68"
    },
    {
      "children": [
        99
      ],
      "name": "3387d7789353c1e122d8_40_69"
    },
    {
      "children": [
        100
      ],
      "name": "Object_70_70"
    },
    {
      "mesh": 26,
      "name": "Object_100"
    },
    {
      "children": [
        102
      ],
      "name": "ef46d8c576ebc97d661b_41_71"
    },
    {
      "children": [
        103
      ],
      "name": "Object_72_72"
    },
    {
      "mesh": 27,
      "name": "Object_103"
    },
    {
      "children": [
        105
      ],
      "name": "b6f6a745c77c05a6d068_42_73"
    },
    {
      "children": [
        106
      ],
      "name": "Object_74_74"
    },
    {
      "mesh": 28,
      "name": "Object_106"
    },
    {
      "children": [
        108
      ],
      "name": "e268900ed84c376a3bdc_43_75"
    },
    {
      "children": [
        109
      ],
      "name": "fc43fe86eee65edbdbce_44_76"
    },
    {
      "children": [
        110
      ],
      "name": "Object_77_77"
    },
    {
      "mesh": 29,
      "name": "Object_110"
    },
    {
      "children": [
        112,
        115,
        118
      ],
      "name": "58f59935e1d1231d5b7e_45_78"
    },
    {
      "children": [
        113
      ],
      "name": "36c41e63efc9d462f7bb_46_79"
    },
    {
      "children": [
        114
      ],
      "name": "Object_80_80"
    },
    {
      "mesh": 30,
      "name": "Object_114"
    },
    {
      "children": [
        116
      ],
      "name": "2d938eea3818d13af526_47_81"
    },
    {
      "children": [
        117
      ],
      "name": "Object_82_82"
    },
    {
      "mesh": 31,
      "name": "Object_117"
    },
    {
      "children": [
        119
      ],
      "name": "b0213cf0b7c64deac8bc_48_83"
    },
    {
      "children": [
        120
      ],
      "name": "Object_84_84"
    },
    {
      "mesh": 32,
      "name": "Object_120"
    },
    {
      "children": [
        122
      ],
      "name": "ebc339b99475efa5174c_49_85"
    },
    {
      "children": [
        123
      ],
      "name": "Object_86_86"
    },
    {
      "mesh": 33,
      "name": "Object_123"
    },
    {
      "children": [
        125
      ],
      "name": "90af9e3e61db26546847_50_87"
    },
    {
      "children": [
        126
      ],
      "name": "Object_88_88"
    },
    {
      "mesh": 34,
      "name": "Object_126"
    },
    {
      "children": [
        128
      ],
      "name": "163cf09bc499572aa648_51_89"
    },
    {
      "children": [
        129
      ],
      "name": "Object_90_90"
    },
    {
      "mesh": 35,
      "name": "Object_129"
    },
    {
      "children": [
        131
      ],
      "name": "ed1f18f272df9ca27f3c_52_91"
    },
    {
      "children": [
        132
      ],
      "name": "Object_92_92"
    },
    {
      "mesh": 36,
      "name": "Object_132"
    },
    {
      "children": [
        134
      ],
      "name": "f3900596a9052dcb9f7e_53_93"
    },
    {
      "children": [
        135
      ],
      "name": "Object_94_94"
    },
    {
      "mesh": 37,
      "name": "Object_135"
    },
    {
      "children": [
        137
      ],
      "name": "df9461b7c6318c4d1d6d_54_95"
    },
    {
      "children": [
        138
      ],
      "name": "Object_96_96"
    },
    {
      "mesh": 38,
      "name": "Object_138"
    },
    {
      "children": [
        140
      ],
      "name": "e7b85879dd495c27a635_55_97"
    },
    {
      "children": [
        141
      ],
      "name": "Object_98_98"
    },
    {
      "mesh": 39,
      "name": "Object_141"
    },
    {
      "children": [
        143
      ],
      "name": "20109f2185a42a027218_56_99"
    },
    {
      "children": [
        144
      ],
      "name": "Object_100_100"
    },
    {
      "mesh": 40,
      "name": "Object_144"
    }
  ],
  "scene": 0,
  "scenes": [
    {
      "name": "Sketchfab_Scene",
      "nodes": [
        0
      ]
    }
  ]
}
